<svg width="20" height="19" viewBox="0 0 20 19" fill="none" xmlns="http://www.w3.org/2000/svg">
<path fill-rule="evenodd" clip-rule="evenodd" d="M1.32216 1.25873C1.84286 0.762714 2.68708 0.762714 3.20778 1.25873L10.265 7.98141L17.3222 1.25873C17.8429 0.762714 18.6871 0.762714 19.2078 1.25873C19.7285 1.75475 19.7285 2.55895 19.2078 3.05497L12.1506 9.77765L19.2078 16.5003C19.7285 16.9963 19.7285 17.8005 19.2078 18.2966C18.6871 18.7926 17.8429 18.7926 17.3222 18.2966L10.265 11.5739L3.20778 18.2966C2.68708 18.7926 1.84286 18.7926 1.32216 18.2966C0.801466 17.8005 0.801466 16.9963 1.32216 16.5003L8.37936 9.77765L1.32216 3.05497C0.801466 2.55895 0.801466 1.75475 1.32216 1.25873Z" fill="#515457"/>
</svg>
