<svg id="visual" viewBox="0 0 2048 493" width="2048" height="493" xmlns="http://www.w3.org/2000/svg" xmlns:xlink="http://www.w3.org/1999/xlink" version="1.1"><path d="M0 129L113.8 133.2C227.7 137.3 455.3 145.7 682.8 139.2C910.3 132.7 1137.7 111.3 1365.2 101.5C1592.7 91.7 1820.3 93.3 1934.2 94.2L2048 95L2048 0L1934.2 0C1820.3 0 1592.7 0 1365.2 0C1137.7 0 910.3 0 682.8 0C455.3 0 227.7 0 113.8 0L0 0Z" fill="#0e273e"></path><path d="M0 159L113.8 163.8C227.7 168.7 455.3 178.3 682.8 173.3C910.3 168.3 1137.7 148.7 1365.2 139.7C1592.7 130.7 1820.3 132.3 1934.2 133.2L2048 134L2048 93L1934.2 92.2C1820.3 91.3 1592.7 89.7 1365.2 99.5C1137.7 109.3 910.3 130.7 682.8 137.2C455.3 143.7 227.7 135.3 113.8 131.2L0 127Z" fill="#103150"></path><path d="M0 213L113.8 219.5C227.7 226 455.3 239 682.8 234.8C910.3 230.7 1137.7 209.3 1365.2 197.8C1592.7 186.3 1820.3 184.7 1934.2 183.8L2048 183L2048 132L1934.2 131.2C1820.3 130.3 1592.7 128.7 1365.2 137.7C1137.7 146.7 910.3 166.3 682.8 171.3C455.3 176.3 227.7 166.7 113.8 161.8L0 157Z" fill="#254b71"></path><path d="M0 257L113.8 262C227.7 267 455.3 277 682.8 272.2C910.3 267.3 1137.7 247.7 1365.2 237.8C1592.7 228 1820.3 228 1934.2 228L2048 228L2048 181L1934.2 181.8C1820.3 182.7 1592.7 184.3 1365.2 195.8C1137.7 207.3 910.3 228.7 682.8 232.8C455.3 237 227.7 224 113.8 217.5L0 211Z" fill="#2f5780"></path><path d="M0 312L113.8 315.2C227.7 318.3 455.3 324.7 682.8 316.3C910.3 308 1137.7 285 1365.2 278.5C1592.7 272 1820.3 282 1934.2 287L2048 292L2048 226L1934.2 226C1820.3 226 1592.7 226 1365.2 235.8C1137.7 245.7 910.3 265.3 682.8 270.2C455.3 275 227.7 265 113.8 260L0 255Z" fill="#254b71"></path><path d="M0 420L113.8 422.5C227.7 425 455.3 430 682.8 430.8C910.3 431.7 1137.7 428.3 1365.2 430C1592.7 431.7 1820.3 438.3 1934.2 441.7L2048 445L2048 290L1934.2 285C1820.3 280 1592.7 270 1365.2 276.5C1137.7 283 910.3 306 682.8 314.3C455.3 322.7 227.7 316.3 113.8 313.2L0 310Z" fill="#103150"></path><path d="M0 494L113.8 494C227.7 494 455.3 494 682.8 494C910.3 494 1137.7 494 1365.2 494C1592.7 494 1820.3 494 1934.2 494L2048 494L2048 443L1934.2 439.7C1820.3 436.3 1592.7 429.7 1365.2 428C1137.7 426.3 910.3 429.7 682.8 428.8C455.3 428 227.7 423 113.8 420.5L0 418Z" fill="#0e273e"></path></svg>