<svg width="56" height="56" viewBox="0 0 56 56" fill="none" xmlns="http://www.w3.org/2000/svg">
<path d="M27.9999 48.9125C16.4499 48.9125 7.0874 39.55 7.0874 28C7.0874 16.45 16.4499 7.08752 27.9999 7.08752C39.5499 7.08752 48.9124 16.45 48.9124 28C48.9124 39.55 39.5499 48.9125 27.9999 48.9125V48.9125ZM27.9999 9.36253C17.7624 9.36253 9.36241 17.7625 9.36241 28C9.36241 38.2375 17.7624 46.6375 27.9999 46.6375C38.2374 46.6375 46.6374 38.2375 46.6374 28C46.6374 17.7625 38.2374 9.36253 27.9999 9.36253Z" fill="white"/>
<path d="M15.7499 43.1375L13.6499 42.175C14.2624 40.6875 16.1874 39.9 18.3749 38.9375C20.4749 37.975 23.0999 36.8375 23.0999 35.4375V33.5125C22.3124 32.9 21.0874 31.5 20.9124 29.4875C20.2999 28.875 19.3374 27.7375 19.3374 26.3375C19.3374 25.4625 19.6874 24.7625 19.9499 24.325C19.7749 23.3625 19.4249 21.4375 19.4249 19.95C19.4249 15.1375 22.7499 11.9875 27.9999 11.9875C29.4874 11.9875 31.3249 12.425 32.2874 13.475C34.6499 13.9125 36.5749 16.7125 36.5749 19.95C36.5749 22.05 36.2249 23.8 35.9624 24.5875C36.2249 25.025 36.4874 25.6375 36.4874 26.3375C36.4874 28 35.6999 29.05 34.9124 29.575C34.7374 31.5875 33.5999 32.9 32.8999 33.5125V35.4375C32.8999 36.6625 35.0874 37.45 37.0999 38.2375C39.4624 39.1125 41.9124 39.9875 42.6999 42L40.5124 42.7875C40.1624 41.7375 38.0624 41.0375 36.3124 40.3375C33.5999 39.375 30.5374 38.2375 30.5374 35.4375V32.2875L31.0624 31.9375C31.1499 31.9375 32.6374 30.8875 32.6374 28.875V28.0875L33.3374 27.825C33.4249 27.7375 34.1249 27.3875 34.1249 26.3375C34.1249 25.9875 33.8624 25.6375 33.7749 25.55L33.3374 25.025L33.5124 24.4125C33.5124 24.4125 34.1249 22.4875 34.1249 19.8625C34.1249 17.675 32.8999 15.6625 31.5874 15.6625H30.8874L30.5374 15.05C30.2749 14.6125 29.2249 14.175 27.8249 14.175C23.8874 14.175 21.5249 16.275 21.5249 19.8625C21.5249 21.525 22.1374 24.2375 22.1374 24.2375L22.3124 24.85L21.8749 25.2875C21.8749 25.2875 21.5249 25.725 21.5249 26.1625C21.5249 26.775 22.3124 27.5625 22.6624 27.9125L23.0999 28.2625V28.875C23.0999 30.8 24.7624 31.85 24.7624 31.85L25.2874 32.2V35.35C25.2874 38.2375 22.0499 39.725 19.1624 40.95C17.9374 41.65 16.0999 42.525 15.7499 43.1375Z" fill="white"/>
</svg>